HIERARCHY
ROOT Hips
{
	OFFSET -0.001795 -0.223333 0.028219
	CHANNELS 6 Xposition Yposition Zposition Zrotation Yrotation Xrotation 
	JOINT LeftUpLeg
	{
		OFFSET 0.069520 -0.091406 -0.006815
		CHANNELS 3 Zrotation Yrotation Xrotation
		JOINT LeftLeg
		{
			OFFSET 0.034277 -0.375199 -0.004496
			CHANNELS 3 Zrotation Yrotation Xrotation
			JOINT LeftFoot
			{
				OFFSET -0.013596 -0.397961 -0.043693
				CHANNELS 3 Zrotation Yrotation Xrotation
				JOINT LeftToe
				{
					OFFSET 0.026358 -0.055791 0.119288
					CHANNELS 3 Zrotation Yrotation Xrotation
					End Site
					{
						OFFSET 0.000000 0.000000 0.000000
					}
				}
			}
		}
	}
	JOINT RightUpLeg
	{
		OFFSET -0.067670 -0.090522 -0.004320
		CHANNELS 3 Zrotation Yrotation Xrotation
		JOINT RightLeg
		{
			OFFSET -0.038290 -0.382569 -0.008850
			CHANNELS 3 Zrotation Yrotation Xrotation
			JOINT RightFoot
			{
				OFFSET 0.015774 -0.398415 -0.042312
				CHANNELS 3 Zrotation Yrotation Xrotation
				JOINT RightToe
				{
					OFFSET -0.025372 -0.048144 0.123348
					CHANNELS 3 Zrotation Yrotation Xrotation
					End Site
					{
						OFFSET 0.000000 0.000000 0.000000
					}
				}
			}
		}
	}
	JOINT Spine
	{
		OFFSET -0.002533 0.108963 -0.026696
		CHANNELS 3 Zrotation Yrotation Xrotation
		JOINT Spine1
		{
			OFFSET 0.005487 0.135180 0.001092
			CHANNELS 3 Zrotation Yrotation Xrotation
			JOINT Spine2
			{
				OFFSET 0.001457 0.052922 0.025425
				CHANNELS 3 Zrotation Yrotation Xrotation
				JOINT Neck
				{
					OFFSET -0.002778 0.213870 -0.042857
					CHANNELS 3 Zrotation Yrotation Xrotation
					JOINT Head
					{
						OFFSET 0.005152 0.064970 0.051349
						CHANNELS 3 Zrotation Yrotation Xrotation
						End Site
						{
							OFFSET 0.000000 0.000000 0.000000
						}
					}
				}
				JOINT LeftShoulder
				{
					OFFSET 0.078845 0.121749 -0.034090
					CHANNELS 3 Zrotation Yrotation Xrotation
					JOINT LeftArm
					{
						OFFSET 0.090977 0.030469 -0.008868
						CHANNELS 3 Zrotation Yrotation Xrotation
						JOINT LeftForeArm
						{
							OFFSET 0.259612 -0.012772 -0.027456
							CHANNELS 3 Zrotation Yrotation Xrotation
							JOINT LeftHand
							{
								OFFSET 0.249234 0.008986 -0.001171
								CHANNELS 3 Zrotation Yrotation Xrotation
								End Site
								{
									OFFSET 0.000000 0.000000 0.000000
								}
							}
						}
					}
				}
				JOINT RightShoulder
				{
					OFFSET -0.081759 0.118833 -0.038615
					CHANNELS 3 Zrotation Yrotation Xrotation
					JOINT RightArm
					{
						OFFSET -0.096012 0.032551 -0.009143
						CHANNELS 3 Zrotation Yrotation Xrotation
						JOINT RightForeArm
						{
							OFFSET -0.253742 -0.013329 -0.021401
							CHANNELS 3 Zrotation Yrotation Xrotation
							JOINT RightHand
							{
								OFFSET -0.255298 0.007772 -0.005559
								CHANNELS 3 Zrotation Yrotation Xrotation
								End Site
								{
									OFFSET 0.000000 0.000000 0.000000
								}
							}
						}
					}
				}
			}
		}
	}
}
MOTION
Frames: 14
Frame Time: 0.050000
0.000000 0.936551 0.000000 -0.077670 -7.965628 5.080558 10.553997 0.003133 -0.654098 0.579061 0.209393 -6.808819 10.695438 20.250924 23.864426 0.000000 0.000000 0.000000 -9.729209 0.574234 -1.802909 1.705895 -0.206342 -2.421049 -9.677309 -23.037667 20.519402 0.000000 0.000000 0.000000 8.078471 -0.314083 1.428252 -8.248333 2.385597 -24.213500 -0.343770 9.270845 21.575509 6.166633 -3.308208 -11.392181 0.000000 0.000000 0.000000 -15.832066 -1.432108 -1.013589 -23.463996 -5.047405 -2.681989 20.192091 -8.768702 -1.237542 0.000000 0.000000 0.000000 24.199432 -6.169454 -4.211127 26.338949 9.397230 -2.318460 -16.054576 16.338346 -1.201170 0.000000 0.000000 0.000000 
0.000567 0.934794 -0.000025 -0.340316 -8.799496 5.528899 10.788999 0.024804 0.322241 0.487816 0.317080 -8.873982 11.187040 20.756524 24.229516 0.000000 0.000000 0.000000 -9.438169 0.604554 -2.758161 1.429556 -0.171475 -1.881106 -9.344969 -22.665411 19.784650 0.000000 0.000000 0.000000 8.505322 -0.345150 1.544334 -8.425691 2.345935 -25.795145 -0.409326 11.142954 22.034911 5.304214 -2.361775 -12.056604 0.000000 0.000000 0.000000 -16.674463 -0.671881 -1.766486 -26.534261 -5.794637 -2.836797 18.196046 -10.535377 -1.325366 0.000000 0.000000 0.000000 27.083832 -7.522426 -4.980141 28.597332 9.837348 -2.546937 -14.535336 17.204463 -1.021211 0.000000 0.000000 0.000000 
0.001072 0.933946 -0.000501 0.014598 -8.655279 4.768899 10.598042 0.033612 -0.001497 0.137520 0.250416 -7.099320 11.169138 20.807502 23.413624 0.000000 0.000000 0.000000 -10.182344 0.617170 -2.531682 2.043075 -0.192949 -0.888667 -9.489255 -22.838276 19.307576 0.000000 0.000000 0.000000 8.792241 -0.384573 1.975469 -8.912325 2.486078 -25.406014 -1.014176 10.416039 22.504725 7.066869 -3.600542 -13.259539 0.000000 0.000000 0.000000 -18.351119 -1.311712 -1.495581 -29.874157 -4.124359 -3.578181 19.448711 -11.924717 -1.582900 0.000000 0.000000 0.000000 28.763819 -5.918197 -4.276948 30.886174 9.517551 -2.730593 -13.888715 17.644558 -0.986180 0.000000 0.000000 0.000000 
0.001446 0.934047 -0.000997 0.247943 -8.791327 4.855664 11.009210 0.042132 0.036150 -1.100740 0.338949 -7.401177 11.199743 20.831215 23.475506 0.000000 0.000000 0.000000 -10.358500 0.632944 -2.694252 1.837904 -0.178156 -0.952001 -9.438828 -22.782393 19.312868 0.000000 0.000000 0.000000 8.428984 -0.331740 1.593584 -9.323530 2.586079 -25.495734 -0.835714 9.701326 22.467726 6.006300 -2.936808 -13.106760 0.000000 0.000000 0.000000 -20.282297 -0.503150 -1.977034 -34.285529 -3.534959 -4.272530 20.225548 -14.036546 -1.882934 0.000000 0.000000 0.000000 29.651702 -5.704251 -4.571953 35.033086 9.600341 -2.815799 -12.900006 18.534619 -0.910340 0.000000 0.000000 0.000000 
0.001776 0.934408 -0.001650 0.422333 -8.676899 4.725886 10.690506 0.036704 -0.372706 -0.884394 0.298161 -6.630475 11.151139 20.783273 23.368276 0.000000 0.000000 0.000000 -10.313394 0.626095 -2.869408 1.418267 -0.133263 -0.457360 -9.501700 -22.869991 19.374927 0.000000 0.000000 0.000000 7.959188 -0.351496 1.896979 -8.535624 2.406016 -25.285489 -1.351833 9.690955 21.866667 6.406992 -3.121333 -13.657714 0.000000 0.000000 0.000000 -21.728538 -0.762022 -2.075173 -37.984494 -2.354840 -4.982797 19.783335 -15.491765 -2.004362 0.000000 0.000000 0.000000 30.583269 -5.566239 -4.572604 38.312507 8.771090 -3.167778 -11.785047 19.741652 -0.797148 0.000000 0.000000 0.000000 
0.002011 0.934886 -0.002512 0.357000 -8.682169 4.647308 10.672739 0.038299 -0.553790 -0.744272 0.274967 -6.244900 11.151746 20.779137 23.398037 0.000000 0.000000 0.000000 -10.340020 0.626608 -3.026796 1.585583 -0.137740 -0.123702 -9.473889 -22.835917 19.469851 0.000000 0.000000 0.000000 7.846323 -0.375285 2.161739 -8.690176 2.451993 -25.040701 -1.424793 8.775570 21.550754 6.596629 -3.167678 -14.979071 0.000000 0.000000 0.000000 -22.977438 -0.507300 -2.133911 -41.103520 -2.511973 -5.371863 18.880538 -15.665877 -1.828742 0.000000 0.000000 0.000000 30.596638 -4.732604 -4.372200 41.802144 8.651213 -3.225777 -9.555708 19.680151 -0.493782 0.000000 0.000000 0.000000 
0.001996 0.935487 -0.003460 0.324140 -8.842969 4.511915 10.705029 0.048127 -0.562083 -0.753144 0.267248 -5.995782 11.207003 20.820433 23.550755 0.000000 0.000000 0.000000 -10.011623 0.611435 -2.743571 1.058692 -0.106733 -0.546377 -9.319897 -22.636406 19.633613 0.000000 0.000000 0.000000 7.720096 -0.413457 2.588345 -8.509331 2.409983 -24.925797 -1.592160 8.566097 21.220539 6.712443 -3.235954 -15.308688 0.000000 0.000000 0.000000 -24.313255 -1.162052 -1.826737 -43.337222 -2.080528 -5.784007 17.445907 -15.944756 -1.640499 0.000000 0.000000 0.000000 31.385209 -3.945434 -4.051105 43.808159 7.653892 -3.594590 -7.238519 20.193852 -0.176596 0.000000 0.000000 0.000000 
0.001824 0.936060 -0.004224 0.143924 -9.021101 4.774906 10.669813 0.047455 -0.876789 -0.347889 0.233483 -5.886883 11.319389 20.915722 23.823726 0.000000 0.000000 0.000000 -9.610130 0.607869 -3.079419 0.696101 -0.078495 -0.582566 -9.194132 -22.489609 19.787375 0.000000 0.000000 0.000000 7.772654 -0.410832 2.500853 -8.412259 2.379750 -24.891774 -1.741528 8.498923 21.351871 6.899683 -3.299639 -15.960703 0.000000 0.000000 0.000000 -24.909732 -1.223173 -1.783434 -45.077178 -2.259868 -5.988108 15.513833 -16.165720 -1.380264 0.000000 0.000000 0.000000 31.616679 -3.562781 -3.873601 46.336073 7.374523 -3.834085 -5.251898 20.315759 0.131930 0.000000 0.000000 0.000000 
0.001514 0.936584 -0.004869 0.036437 -8.903601 4.784793 10.933765 0.050829 -1.131345 -0.545154 0.235892 -5.551966 11.240322 20.825032 23.842334 0.000000 0.000000 0.000000 -9.280316 0.589722 -2.998554 0.394100 -0.060190 -0.737604 -9.211490 -22.509464 19.999381 0.000000 0.000000 0.000000 7.694530 -0.416723 2.575108 -8.496645 2.400368 -24.957423 -1.600690 8.232807 21.365276 6.616716 -3.153674 -15.800349 0.000000 0.000000 0.000000 -24.994834 -1.318693 -1.671849 -46.455759 -2.468321 -6.106160 13.695550 -16.944960 -1.183138 0.000000 0.000000 0.000000 31.747798 -3.332650 -3.812111 48.061739 6.629029 -4.178041 -3.977623 20.150425 0.322587 0.000000 0.000000 0.000000 
0.001092 0.936813 -0.005387 -0.247213 -8.835192 4.818352 11.190271 0.056107 -1.206346 -0.382718 0.220473 -5.477756 11.204554 20.782962 23.875125 0.000000 0.000000 0.000000 -9.033956 0.580161 -3.121236 0.582372 -0.068133 -0.537370 -9.224402 -22.526460 20.056292 0.000000 0.000000 0.000000 7.849057 -0.404346 2.409914 -8.765279 2.468145 -24.825917 -1.390688 8.265801 21.493108 6.676450 -3.242933 -15.477687 0.000000 0.000000 0.000000 -24.946925 -1.695576 -1.449593 -47.088381 -2.690309 -6.119059 11.907888 -17.849011 -0.989151 0.000000 0.000000 0.000000 31.960612 -3.175610 -3.685357 49.495000 6.298322 -4.421674 -2.761786 19.762124 0.504850 0.000000 0.000000 0.000000 
0.000806 0.936506 -0.005789 -0.304000 -9.064328 4.766033 11.289255 0.067602 -1.168056 -0.438871 0.220284 -5.347399 11.342070 20.931381 23.874968 0.000000 0.000000 0.000000 -9.029530 0.581006 -2.954168 0.676778 -0.086455 -0.859660 -9.098964 -22.366042 19.906605 0.000000 0.000000 0.000000 7.831635 -0.413393 2.518097 -8.759799 2.463871 -24.844181 -1.387138 8.360837 21.347523 6.581895 -3.203989 -15.284291 0.000000 0.000000 0.000000 -24.654441 -1.812943 -1.338481 -47.412006 -2.824804 -6.102857 10.575837 -18.951764 -0.847864 0.000000 0.000000 0.000000 31.827002 -3.162550 -3.688304 50.486026 5.917974 -4.609106 -2.294958 19.741125 0.575191 0.000000 0.000000 0.000000 
0.000583 0.935801 -0.006194 -0.520855 -9.263351 4.818950 11.436064 0.078880 -1.247147 -0.265141 0.199920 -5.168776 11.509427 21.126968 23.772863 0.000000 0.000000 0.000000 -9.029000 0.586165 -2.959328 1.083019 -0.122056 -1.021131 -9.011013 -22.253734 19.667272 0.000000 0.000000 0.000000 7.799935 -0.437922 2.751455 -8.672455 2.420166 -25.275162 -1.143659 8.318201 21.364360 6.429206 -3.197285 -14.770263 0.000000 0.000000 0.000000 -24.473424 -1.766225 -1.285749 -47.359159 -2.924570 -6.076645 9.273052 -19.855769 -0.671121 0.000000 0.000000 0.000000 31.425067 -3.440251 -3.914864 51.307134 5.678874 -4.733240 -2.100268 19.855499 0.609722 0.000000 0.000000 0.000000 
0.000451 0.935280 -0.006689 -0.593986 -9.447348 4.822235 11.531058 0.089485 -1.360626 -0.287209 0.191903 -4.902847 11.649464 21.288946 23.680813 0.000000 0.000000 0.000000 -8.870264 0.581991 -2.887785 0.924395 -0.117298 -1.261918 -8.921225 -22.139784 19.497954 0.000000 0.000000 0.000000 7.627266 -0.422991 2.674864 -8.484160 2.371548 -25.293914 -1.033014 8.016001 21.326746 6.236850 -3.167590 -14.414441 0.000000 0.000000 0.000000 -24.210126 -1.725099 -1.146616 -47.284698 -3.457567 -5.902964 8.632013 -19.847409 -0.549970 0.000000 0.000000 0.000000 31.107506 -3.112208 -3.828750 51.632878 5.729666 -4.676010 -2.228230 19.272498 0.555353 0.000000 0.000000 0.000000 
0.000396 0.934722 -0.007439 -0.737862 -9.692944 4.637473 11.882917 0.115096 -1.394040 -0.636453 0.204378 -4.389745 11.811664 21.486066 23.482632 0.000000 0.000000 0.000000 -8.854362 0.581675 -2.809406 1.145616 -0.130585 -1.188738 -8.798101 -21.977305 19.224845 0.000000 0.000000 0.000000 7.591960 -0.435162 2.846873 -8.344442 2.333045 -25.289154 -0.899648 8.093349 21.373893 6.179988 -3.225166 -13.821938 0.000000 0.000000 0.000000 -23.909829 -1.852767 -1.013051 -47.090063 -3.826193 -5.760052 7.975384 -20.077275 -0.447388 0.000000 0.000000 0.000000 31.116482 -3.290523 -3.985591 51.945559 5.973119 -4.594071 -2.366683 19.265978 0.537282 0.000000 0.000000 0.000000 
